<?xml version="1.0" encoding="UTF-8"?>
<svg id="Calque_2" data-name="Calque 2" xmlns="http://www.w3.org/2000/svg" viewBox="0 0 939.31 908.35">
  <defs>
    <style>
      .cls-1, .cls-2, .cls-3, .cls-4, .cls-5 {
        fill: #92e3a9;
      }

      .cls-1, .cls-6, .cls-3, .cls-7, .cls-8, .cls-9, .cls-10, .cls-11, .cls-12, .cls-13 {
        stroke-width: 2px;
      }

      .cls-1, .cls-6, .cls-7, .cls-8, .cls-10, .cls-11 {
        stroke: #000;
      }

      .cls-2 {
        stroke-width: .5px;
      }

      .cls-2, .cls-3, .cls-4, .cls-9, .cls-12 {
        stroke: #263238;
      }

      .cls-6, .cls-3, .cls-9, .cls-10 {
        stroke-miterlimit: 10;
      }

      .cls-6, .cls-8 {
        fill: #adadad;
      }

      .cls-7, .cls-14, .cls-9, .cls-10, .cls-12 {
        fill: #fff;
      }

      .cls-14, .cls-5, .cls-15 {
        stroke-width: 0px;
      }

      .cls-15 {
        fill: #263238;
      }

      .cls-11 {
        fill: #e5e5e5;
      }

      .cls-13 {
        fill: none;
        stroke: #fff;
      }
    </style>
  </defs>
  <g id="Calque_1-2" data-name="Calque 1">
    <g>
      <g>
        <polygon class="cls-12" points="1.13 833.87 22.93 707.67 101.33 707.67 23.53 842.17 1.13 833.87"/>
        <polygon class="cls-9" points="1.13 833.87 1.13 849.97 24.03 859.07 23.53 842.17 1.13 833.87"/>
        <polygon class="cls-9" points="24.03 859.07 101.33 732.57 101.33 707.67 23.53 842.17 24.03 859.07"/>
        <polygon class="cls-9" points="38.83 847.47 62.43 859.97 178.53 765.97 121.83 720.47 38.83 847.47"/>
        <polygon class="cls-9" points="178.53 765.97 178.53 783.37 62.43 875.57 62.43 859.97 178.53 765.97"/>
        <polygon class="cls-9" points="38.83 847.47 38.83 862.47 62.43 875.57 62.43 859.97 38.83 847.47"/>
      </g>
      <g>
        <polygon class="cls-12" points="760.53 893.27 718.23 772.27 786.73 734.27 784.13 889.57 760.53 893.27"/>
        <polygon class="cls-9" points="760.53 893.27 768.33 907.27 792.83 904.07 784.13 889.57 760.53 893.27"/>
        <polygon class="cls-9" points="792.83 904.07 798.83 755.97 786.73 734.27 784.13 889.57 792.83 904.07"/>
        <polygon class="cls-9" points="800.03 886.77 826.73 886.27 882.53 747.67 810.93 735.47 800.03 886.77"/>
        <polygon class="cls-9" points="882.53 747.67 891.03 762.87 834.33 899.87 826.73 886.27 882.53 747.67"/>
        <polygon class="cls-9" points="800.03 886.77 807.33 899.87 834.33 899.87 826.73 886.27 800.03 886.77"/>
      </g>
      <path class="cls-15" d="m649.03,245.97h37.4c25.3,0,62.1-18.7,70.6-26.8,8.5-8.1,16.5-.8,6,6.9s-36.1,30.3-75.6,29.9h-36.5l-1.9-10Z"/>
      <path class="cls-15" d="m646.53,311.97s6.8,10.2,21.1,31.3c14.2,21.2,51,41.3,62.7,43.8s9.9,13.4-2.5,9-46.3-12.9-68.1-46.2l-20.6-30.6,7.4-7.3Z"/>
      <path class="cls-15" d="m668.93,296.37s11.7,3.4,35.9,10.3c24.2,7,54.4,35.3,60.3,45.5s15.6,5.3,7.7-5-26.2-39.4-64.3-49.9l-35.1-10.1-4.5,9.2Z"/>
      <path class="cls-15" d="m98.83,692.17s-9.8-58.6,85.4-132.2c73.2-56.6,45-151.5,20.4-171.6-2.7-2.2,25.2,12.7,38.1,13.9,16.5,1.5,38.5,107.8-37.4,171.1-108.5,90.5-70.3,118.8-70.3,118.8"/>
      <circle class="cls-8" cx="251.93" cy="330.97" r="77"/>
      <circle class="cls-8" cx="621.13" cy="287.17" r="77"/>
      <circle class="cls-8" cx="472.53" cy="532.97" r="125"/>
      <path class="cls-15" d="m786.93,714.97s-9.8-58.6,85.4-132.2c83-64.1,14.2-119.7-4.8-132.9-2.8-1.9-.2-7-.2-7l12.1-11.3s7.7-3.9,10.9-1.4c21.4,16.9,96.9,86.7,3,165.9-108,91.1-70.3,118.8-70.3,118.8"/>
      <circle class="cls-1" cx="395.33" cy="621.37" r="56.7"/>
      <circle class="cls-1" cx="544.03" cy="621.37" r="56.7"/>
      <circle class="cls-1" cx="799.23" cy="735.97" r="39.5"/>
      <circle class="cls-1" cx="108.63" cy="714.97" r="39.5" transform="translate(-614.52 707.67) rotate(-80.78)"/>
      <path class="cls-15" d="m595.23,773.77l-19.9,4.8c-6.4,1.5-12.9-2.4-14.5-8.9l-32.4-134.3c-1.5-6.4,2.4-12.9,8.9-14.5l19.9-4.8c6.4-1.5,12.9,2.4,14.5,8.9l32.4,134.3c1.5,6.4-2.5,12.9-8.9,14.5Z"/>
      <path class="cls-15" d="m358.13,766.27l-19.6-5.6c-6.3-1.8-10.1-8.5-8.2-14.8l35.3-123.7c1.8-6.3,8.5-10.1,14.8-8.2l19.6,5.6c6.3,1.8,10.1,8.5,8.2,14.8l-35.3,123.7c-1.8,6.3-8.5,10-14.8,8.2Z"/>
      <path class="cls-15" d="m492.93,572.87h-43.8c-16.5,0-30-13.5-30-30v-55.4c0-16.5,13.5-30,30-30h43.8c16.5,0,30,13.5,30,30v55.4c0,16.5-13.5,30-30,30Z"/>
      <polygon class="cls-11" points="257.63 349.27 324.13 518.67 610.83 489.27 626.93 311.57 257.63 349.27"/>
      <polygon class="cls-7" points="243.33 242.97 257.23 349.77 626.43 312.17 626.43 200.87 243.33 242.97"/>
      <ellipse class="cls-1" cx="427.03" cy="259.27" rx="78.1" ry="73.5"/>
      <ellipse class="cls-15" cx="429.03" cy="259.27" rx="49.6" ry="45"/>
      <polygon class="cls-11" points="275.33 139.97 326.23 265.67 546.53 244.07 556.53 117.87 275.33 139.97"/>
      <circle class="cls-15" cx="488.03" cy="175.57" r="38.3"/>
      <circle class="cls-5" cx="488.03" cy="175.57" r="34.6"/>
      <circle class="cls-15" cx="488.03" cy="175.57" r="25.3"/>
      <circle class="cls-14" cx="488.03" cy="175.57" r="21.6"/>
      <circle class="cls-15" cx="361.53" cy="188.57" r="38.3"/>
      <circle class="cls-5" cx="361.53" cy="188.57" r="34.6"/>
      <circle class="cls-15" cx="361.53" cy="188.57" r="25.3"/>
      <circle class="cls-14" cx="361.53" cy="188.57" r="21.6"/>
      <path class="cls-15" d="m463.33,238.37l-66.2,7.3c-3.4.4-6.6-2.1-7-5.6l-.9-7.8c-.4-3.4,2.1-6.6,5.6-7l66.2-7.3c3.4-.4,6.6,2.1,7,5.6l.9,7.8c.3,3.5-2.2,6.6-5.6,7Z"/>
      <polygon class="cls-7" points="300.13 25.87 275.23 139.87 556.13 116.37 514.33 8.67 300.13 25.87"/>
      <path class="cls-15" d="m369.73,370.17s134.8-14.5,143.6-15.4c8.8-.9,33-.2,32,17.9s-4.6,77-4.6,77c0,0-3.7,26.1-28.6,29s-96.9,11.2-104.7,11.2-32.3,9-39.8-27.5l-18.7-58.2s-6.4-31.1,20.8-34Z"/>
      <circle class="cls-1" cx="312.13" cy="388.37" r="22.7"/>
      <circle class="cls-1" cx="580.93" cy="429.47" r="20.7"/>
      <circle class="cls-7" cx="584.83" cy="359.77" r="22.7"/>
      <circle class="cls-7" cx="332.43" cy="455.57" r="20.3"/>
      <polyline class="cls-13" points="360.03 440.37 388.93 437.67 401.63 394.67 436.63 454.57 452.43 401.47 470.33 430.07 542.63 423.27"/>
      <g>
        <path class="cls-15" d="m497.03,169.17l-13.1,14c-.8.8-2.1.9-2.9.1l-1.9-1.8c-.8-.8-.9-2.1-.1-2.9l13.1-14c.8-.8,2.1-.9,2.9-.1l1.9,1.8c.8.8.8,2.1.1,2.9Z"/>
        <path class="cls-15" d="m492.73,182.87l-14-13.1c-.8-.8-.9-2.1-.1-2.9l1.8-1.9c.8-.8,2.1-.9,2.9-.1l14,13.1c.8.8.9,2.1.1,2.9l-1.8,1.9c-.8.8-2.1.8-2.9.1Z"/>
      </g>
      <g>
        <path class="cls-15" d="m370.53,183.87l-13.1,14c-.8.8-2.1.9-2.9.1l-1.9-1.8c-.8-.8-.9-2.1-.1-2.9l13.1-14c.8-.8,2.1-.9,2.9-.1l1.9,1.8c.8.8.9,2.1.1,2.9Z"/>
        <path class="cls-15" d="m366.23,197.57l-14-13.1c-.8-.8-.9-2.1-.1-2.9l1.8-1.9c.8-.8,2.1-.9,2.9-.1l14,13.1c.8.8.9,2.1.1,2.9l-1.8,1.9c-.8.8-2.1.8-2.9.1Z"/>
      </g>
      <path class="cls-15" d="m795.73,260.47h-31.2c-.8,0-1.4-.6-1.4-1.4v-1.8c0-.8.6-1.4,1.4-1.4h31.2c.8,0,1.4.6,1.4,1.4v1.8c0,.8-.6,1.4-1.4,1.4Z"/>
      <path class="cls-15" d="m765.03,392.67l-21.2-23c-.5-.6-.5-1.5.1-2l1.3-1.2c.6-.5,1.5-.5,2,.1l21.2,23c.5.6.5,1.5-.1,2l-1.3,1.2c-.6.5-1.4.5-2-.1Z"/>
      <path class="cls-15" d="m684.53,406.27l-23.5-36.9c-.4-.7-.2-1.5.4-1.9l1.8-1.2c.7-.4,1.5-.2,1.9.4l23.5,36.9c.4.7.2,1.5-.4,1.9l-1.8,1.2c-.6.5-1.5.3-1.9-.4Z"/>
      <path class="cls-15" d="m786.13,239.97l-30.8,5.3c-.8.1-1.5-.4-1.6-1.1l-.3-1.7c-.1-.8.4-1.5,1.1-1.6l30.8-5.3c.8-.1,1.5.4,1.6,1.1l.3,1.7c.2.7-.3,1.5-1.1,1.6Z"/>
      <path class="cls-15" d="m777.83,276.97l-37.8-14.7c-.7-.3-1.1-1.1-.8-1.8l.6-1.6c.3-.7,1.1-1.1,1.8-.8l37.8,14.7c.7.3,1.1,1.1.8,1.8l-.6,1.6c-.3.7-1.1,1.1-1.8.8Z"/>
      <path class="cls-15" d="m797.03,366.87l.9-1.3c.4-.6.2-1.4-.3-1.8l-10.5-7.2c-.6-.4-1.4-.2-1.8.3l-.9,1.3c-.4.6-.2,1.4.3,1.8l10.5,7.2c.6.4,1.4.3,1.8-.3Z"/>
      <path class="cls-15" d="m727.03,351.87l.5-1.5c.2-.7-.2-1.4-.8-1.6l-19-6.1c-.7-.2-1.4.2-1.6.8l-.5,1.5c-.2.7.2,1.4.8,1.6l19,6.1c.7.2,1.4-.2,1.6-.8Z"/>
      <path class="cls-15" d="m646.43,391.47l1.5-.5c.7-.2,1-.9.8-1.6l-6-19.1c-.2-.7-.9-1-1.6-.8l-1.5.5c-.7.2-1,.9-.8,1.6l6,19.1c.2.7.9,1,1.6.8Z"/>
      <polygon class="cls-4" points="818.53 341.87 807.03 337.37 796.83 344.17 797.63 331.97 787.93 324.37 799.83 321.27 804.03 309.77 810.63 320.07 822.93 320.57 815.13 330.07 818.53 341.87"/>
      <polygon class="cls-4" points="676.83 439.17 667.53 437.67 661.03 444.47 659.63 435.17 651.13 431.07 659.53 426.87 660.73 417.47 667.43 424.17 676.63 422.47 672.33 430.87 676.83 439.17"/>
      <polygon class="cls-4" points="795.83 211.57 787.13 207.97 779.23 213.07 780.03 203.67 772.73 197.77 781.93 195.57 785.33 186.77 790.13 194.87 799.53 195.37 793.43 202.47 795.83 211.57"/>
      <polygon class="cls-2" points="861.43 399.67 857.83 398.17 854.53 400.37 854.93 396.47 851.83 393.97 855.63 393.07 857.03 389.47 859.03 392.77 862.93 393.07 860.43 395.97 861.43 399.67"/>
      <polygon class="cls-2" points="830.13 443.87 826.53 442.37 823.33 444.47 823.63 440.57 820.63 438.17 824.33 437.27 825.73 433.67 827.83 436.97 831.63 437.17 829.13 440.07 830.13 443.87"/>
      <path class="cls-15" d="m897.93,457.27s-2.6-5.2-7.9-16-5.1-30.6-3.4-36-3.2-7.2-4.3-1.1c-1.1,6.1-5.5,22,3.1,38.8l7.8,15.7,4.7-1.4Z"/>
      <path class="cls-15" d="m890.33,447.77s-4.2-4-13-12.3-27.7-13.9-33.3-13.9-6-5.1.1-4.3,22.4,1.4,36,14.5l12.7,12-2.5,4Z"/>
      <path class="cls-15" d="m905.83,444.47s-5.8.1-17.9.3-29.9-8.5-34-12.4-7.9-.2-2.8,3.4c5.1,3.6,17.5,14.4,36.4,13.9l17.5-.3.8-4.9Z"/>
      <path class="cls-15" d="m849.93,413.67l-3.9-4.5c-.2-.2-.2-.6.1-.8l.5-.5c.2-.2.6-.2.8.1l3.9,4.5c.2.2.2.6-.1.8l-.5.5c-.2.1-.6.1-.8-.1Z"/>
      <path class="cls-15" d="m839.43,425.57l-5.9-.5c-.3,0-.6-.3-.5-.6l.1-.7c0-.3.3-.6.6-.5l5.9.5c.3,0,.6.3.5.6l-.1.7c0,.3-.3.5-.6.5Z"/>
      <path class="cls-15" d="m860.53,414.47l-1.7-5.7c-.1-.3.1-.6.4-.7l.7-.2c.3-.1.6.1.7.4l1.7,5.7c.1.3-.1.6-.4.7l-.7.2c-.3.1-.6-.1-.7-.4Z"/>
      <path class="cls-15" d="m889.03,408.77l3-5.2c.2-.3.5-.4.8-.2l.6.4c.3.2.4.5.2.8l-3,5.2c-.2.3-.5.4-.8.2l-.6-.4c-.3-.2-.4-.6-.2-.8Z"/>
      <path class="cls-15" d="m875.23,406.67l-2.8-9.4c-.1-.3.1-.6.4-.7l.8-.2c.3-.1.6.1.7.4l2.8,9.4c.1.3-.1.6-.4.7l-.8.2c-.2.1-.6-.1-.7-.4Z"/>
      <path class="cls-15" d="m846.33,440.67l-9.5-2.5c-.3-.1-.5-.4-.4-.7l.2-.8c.1-.3.4-.5.7-.4l9.5,2.5c.3.1.5.4.4.7l-.2.8c0,.3-.4.5-.7.4Z"/>
      <g>
        <polygon class="cls-6" points="555.63 796.27 644.73 591.47 764.63 622.47 660.13 812.17 555.63 796.27"/>
        <polygon class="cls-10" points="555.63 796.27 552.93 774.17 639.43 567.77 644.73 591.47 555.63 796.27"/>
        <polygon class="cls-10" points="639.43 567.77 759.73 602.57 764.63 622.47 644.73 591.47 639.43 567.77"/>
      </g>
      <g>
        <polygon class="cls-6" points="386.03 802.77 296.93 597.97 177.03 628.97 281.53 818.67 386.03 802.77"/>
        <polygon class="cls-10" points="386.03 802.77 388.73 780.77 302.23 574.27 296.93 597.97 386.03 802.77"/>
        <polygon class="cls-10" points="302.23 574.27 181.93 609.07 177.03 628.97 296.93 597.97 302.23 574.27"/>
      </g>
      <g>
        <circle class="cls-3" cx="514.73" cy="35.67" r="21"/>
        <circle class="cls-3" cx="528.63" cy="25.37" r="16.2"/>
        <circle class="cls-3" cx="540.03" cy="14.57" r="11.4"/>
        <path class="cls-15" d="m558.93,2.27l-14.8,10.7c-.4.3-.9.2-1.1-.2l-.6-.8c-.3-.4-.2-.9.2-1.1l14.8-10.7c.4-.3.9-.2,1.1.2l.6.8c.3.3.2.8-.2,1.1Z"/>
      </g>
      <g>
        <circle class="cls-3" cx="301.03" cy="53.27" r="21"/>
        <circle class="cls-3" cx="287.23" cy="42.97" r="16.2"/>
        <circle class="cls-3" cx="275.73" cy="32.17" r="11.4"/>
        <path class="cls-15" d="m256.83,19.87l14.8,10.7c.4.3.9.2,1.1-.2l.6-.8c.3-.4.2-.9-.2-1.1l-14.8-10.7c-.4-.3-.9-.2-1.1.2l-.6.8c-.3.3-.2.8.2,1.1Z"/>
      </g>
    </g>
  </g>
</svg>