<?xml version="1.0" encoding="UTF-8"?>
<svg id="Calque_2" data-name="Calque 2" xmlns="http://www.w3.org/2000/svg" viewBox="0 0 100.38 162.29">
  <defs>
    <style>
      .cls-1 {
        fill: #008334;
        stroke-width: 0px;
      }
    </style>
  </defs>
  <g id="Calque_1-2" data-name="Calque 1">
    <g id="Uph4c9.tif">
      <path class="cls-1" d="M9.71,3.67c4.54-4.83,12.14-4.9,16.82-.2.02.02.05.05.07.07,23.02,22.92,45.77,46.12,69.08,68.73,6.64,6.44,5.94,10.42-.3,16.49-23.26,22.67-46.44,45.45-68.86,68.94-9.71,10.17-13.39.9-18.61-3.95-5.62-5.22-12.96-9.57-2.99-18.63,16.01-14.54,30.47-30.78,46.25-45.6,7.33-6.88,8.4-11.33.35-18.71-15.53-14.24-30.17-29.45-44.8-44.63-3.02-3.13-8.44-8.05-3.44-14.05,3.06-3.68,3.53-5.38,6.43-8.46Z"/>
    </g>
  </g>
</svg>