<?xml version="1.0" encoding="UTF-8"?><svg id="Calque_2" xmlns="http://www.w3.org/2000/svg" viewBox="0 0 584.02 570.7"><defs><style>.cls-1{fill:#008334;}</style></defs><g id="Calque_1-2"><g><g><path d="M503.01,217.21c-2.06,2.23-4.17,4.45-6.21,6.74-3.31,3.7-6.28,3.84-9.26,.08-2.74-3.45-5.68-1.83-8.11-.15-1.97,1.36-3.22,3.76-5.59,6.69,2.77-.28,4.21-.42,6.09-.6,0,.91,.28,1.79-.04,2.17-4.92,5.83-9.51,12.01-15.01,17.25-4.52,4.31-10.18,7.29-8.41,15.11,.3,1.34-1.61,3.45-2.9,4.82-3.51,3.72-7.51,7.01-10.73,10.94-1.16,1.41-1.66,5.3-.73,6.14,3.98,3.6,1.87,6.48-.22,9.59-1.48,2.2-3.03,4.35-4.55,6.53l1.21,1.81c4.31-1.94,8.62-3.88,12.97-5.85-3.54-7.2-3.16-9.26,3-11.51,4.56-1.67,9.63-1.93,14.74-2.86,1.31,11.78,1.27,22.48,10.13,29.83-7.24,11.56-7.31,11.6-1.01,23.55,.96,1.81,2.88,3.21,4.56,4.53,4.08,3.22,4.66,7.16,1.06,10.59-3.02,2.88-6.26,5.57-9.64,8.03-.87,.63-2.63-.1-3.95,.07-1.7,.22-3.68,.31-4.9,1.27-.64,.5-.26,2.89,.26,4.18,2.27,5.58,4.4,11.03,11.8,12.2,1.92,.3,3.23,4.49,4.78,6.85-8.23,5.94-7.18,8.35-7.45,14.99-.35,8.66,4.95,10.98,10.16,14.44,5.96,3.96,12.38,3.81,18.99,2.12,.68-.17,1.45-.02,2.29-.02,.21,.43,.76,1.03,.63,1.36-1.85,4.8-4.01,9.49-5.63,14.36-1.67,5.01-3.43,9.22-9.44,10.82-2.73,.73-4.59,4.4-7.08,6.44-3.21,2.64-6.64,5-9.99,7.46-3.73,2.74-7.48,5.47-12.22,8.93,2.6,.87,3.63,1.22,4.66,1.56,.51,.6,1.02,1.19,1.52,1.79-1.37,.59-2.69,1.32-4.1,1.75-5.21,1.58-10.5,2.89-15.64,4.67-1.6,.56-2.81,2.26-4.35,3.57-2.42-1.45-5.55-3.32-8.68-5.2-.3,.27-.59,.55-.89,.82,.39,.79,.77,1.59,1.7,3.49-8.25-3.33-15.73-6.35-23.47-9.48-.15-1.38-.4-3.71-.65-6.02-3.55,.26-6.41,.71-9.25,.57-1.36-.07-2.67-1.24-4.01-1.91,.91-.96,1.69-2.09,2.75-2.85,1.8-1.28,3.77-2.33,6.27-3.84-3.38-1.29-5.67-2.16-8.24-3.15v6.14c-2.45,.24-4.74,.46-7.25,.7,.2,1.33,.37,2.43,.53,3.52l-1.16,.43-4.37-10.05c-.31,.08-.61,.15-.92,.23,.99,3.17,1.99,6.34,2.98,9.51-.26,.45-.51,.89-.77,1.34-2.68-1.83-5.3-3.76-8.06-5.45-1.14-.69-2.59-.91-3.92-1.26-4.89-1.31-10.34-1.66-14.53-4.14-4.02-2.38-6.71-1.75-9.91,.36-7.91,5.22-15.75,10.55-23.71,15.69-6.48,4.18-10.05,9.86-10.16,17.69-.06,4.2-.73,8.42-.47,12.59,.16,2.58,1.41,5.14,2.46,7.59,.67,1.57,1.87,2.91,3.48,5.33-4.54,0-7.99-.38-11.31,.11-2.97,.44-6.81,1.02-8.44,3.03-2.75,3.38-5.13,2.78-8.35,1.75-2.57-.83-5.42-1.88-7.96-1.52-8.72,1.22-16.54-.14-22.94-6.64-.09-1.19,.43-3.56-.44-4.31-3.56-3.08-7.73-3.87-10.47-2.2-4.1-1.84-7.12-3.25-10.19-4.57-2.33-1-4.72-1.87-7.07-2.83-2.19-.89-4.32-1.98-6.56-2.72-7.7-2.55-9.15-1.52-9.87,7.55-5.98-2.4-12.38,1.66-18.41-2.18-1.08-.69-3.35,.76-5.05,.72-2.36-.05-5.08,.06-6.97-1.06-2.9-1.71-5.22-4.41-7.6-6.52-7.8,4.94-13.79,3.28-18.57-4.34-.48-.76-1.45-1.44-2.32-1.68-5.05-1.36-10.21-2.35-15.19-3.93-2-.63-3.64-2.43-5.09-3.45-2.1,.71-4.23,1.44-7.29,2.47,.52-2.15,.61-2.67,.77-3.17,.74-2.42,2.83-5.78,1.94-7.03-1.39-1.96-4.71-3.1-7.36-3.47-3.5-.48-7.14,.1-7.93-5.01,8.28-.63,12.19-6.68,13.75-13.43,3.26-14.17,5.43-28.59,7.93-42.93,.63-3.59,.14-7.51,1.39-10.81,1.03-2.73,3.87-4.78,6.54-7.87-1.24-.81-3.52-2.28-5.79-3.76-.58,.34-1.16,.67-1.74,1.01,1.67-15.4,3.34-30.79,5.01-46.19,.54,.01,1.07,.03,1.61,.04,4.34,5.01,9.41,9.58,12.8,15.16,3.34,5.49,4.97,12.02,7.35,18.09,.49-.06,.98-.12,1.47-.18-.06-1.38,.18-2.85-.24-4.11-1.36-4.1-3.53-8.01-4.37-12.2-2.37-11.76-9.52-19.36-19.75-24.78-1.68-.89-2.76-2.92-4.12-4.42,.42-.48,.85-.96,1.27-1.44,1.67,.24,3.34,.49,4.88,.71-1-8.25,5.43-17.61-4.35-24.32,1.28-1.14,2.44-1.83,3.07-2.84,.59-.94,.61-2.23,.89-3.37-1.06-.09-2.11-.25-3.17-.23-.58,.01-1.31,.65-1.7,.46-6.06-2.92-12.13-5.83-18.06-8.98-1.55-.82-3.21-2.23-3.88-3.78-3-6.98-7.15-12.87-13.03-17.84-1.32-1.11-.87-5.63,.16-7.97,3.64-8.34,3.83-8.35-4.5-11.26,.66-2.67,1.32-5.34,2.04-8.26h-11.51c-1.95-2.64-3.11-4.22-4.7-6.38,1.97-.58,3.81-1.11,6-1.75-.48-1.92-6.31-3.4-.92-6.54h-18.34c-.03-.42-.06-.84-.09-1.26,2.57-.85,5.14-1.7,7.72-2.56-.19-.91-.39-1.83-.58-2.74-2.97,.33-5.95,.9-8.92,.92-2.7,.02-4.7,2.83-7.88,1.1-.27,1.85-.46,3.21-.66,4.57-.49-.03-.97-.07-1.46-.1,.38-4.52,.76-9.04,1.25-14.95-1.48,2.82-2.36,4.51-3.87,7.4-2.03-2.27-3.62-4.04-5.23-5.84-2.64,2.23-19.02-3.26-24.64-9.1-2.85,.68-7.11,.52-7.98,2.16-2.03,3.8-4.5,3.55-7.84,3,2.14-11.65-8.4-10.5-15.72-15.07,4.46-.81,7.7-1.18,10.81-2.03,2.63-.72,5.19-1.86,7.56-3.21,.29-.17-.5-3.82-1.32-4.06-2.71-.8-5.67-.78-9.42-1.17-.27-.31-1.47-1.69-2.88-3.32,.62-.72,1.41-1.66,2.21-2.59,.02,.46,.05,.91,.07,1.37l13.52,1.02c.09-.47,.18-.95,.27-1.42-2.52-.98-5.04-1.97-7.78-3.03,.32-.43,1.17-1.59,2.55-3.48-3.74,1.38-6.56,2.66-9.5,3.44-2.95,.78-7.17,1.92-7.84-2.03-.51-2.99,.94-7.51,3.17-9.5,3.17-2.83,7.81-4.07,11.92-5.73,1.17-.47,2.71-.03,4.08-.02,1.07,.01,2.28,.34,3.19-.04,3.32-1.4,6.54-3.04,8.97-4.19,2.42,1.73,4.16,2.98,6.09,4.37,.74-1.96,1.31-3.46,2.03-5.37,2.24,.73,4.39,1.65,6.63,2.1,2.91,.59,5.16,.12,4.13-3.85-.95-3.66,.25-4.73,4.25-4.41,4.22,.34,8.54-.66,14.21-1.21,4.94,6.07,10.71,13.17,16.51,20.3,4.67-3.34,9.57-6.84,14.54-10.39,2.1,4.24,5.39,3.86,8.42,3.9,4.76,.06,5.9-5.03,9.71-5.08,5.08,10.34,13.24,3.49,20.75,4.36-6.69-5.24-8.32-14.08-8-21.45,.36-8.4-.3-17.23-7.03-24.27-2.44-2.55-3.26-6.88-4.2-10.56-.83-3.27-.81-6.75-1.19-10.42,.69,.14,2.21,.1,3.36,.73,4.5,2.48,8.84,2.37,13.66,.64,2.19-.78,5.66-.43,7.41,.9,1.16,.88,.27,4.42,.39,6.76,.09,1.73-.04,3.6,.57,5.15,1.11,2.78,2.72,5.37,4.29,8.37,9.14-4.72,18.55-1.18,27.77,.83,8.35,1.82,16.1,2.28,23.86-2,3.94-2.18,8.34-3.53,12.45-6.38-2.34,0-4.68,.13-7.01-.02-6.49-.43-7.65-2.73-4.75-8.37,5.27-10.22,14.33-14.99,24.97-16.74,10.91-1.79,20.19-5.33,26.55-15.21,2.08-3.23,6.54-4.92,9.97-7.36-1.9-2.1-6.72-4.58-1.96-9.69,.65-.7-.3-2.79-.35-4.23-.24-8.03-.65-16.06-.48-24.08,.04-1.73,1.8-4.22,3.41-4.97,4.58-2.12,9.44-3.7,14.3-5.15,6.75-2.02,13.59-3.72,20.73-5.64,.91,3.43,1.38,7.52,3.08,11.01,1.84,3.78,4.42,7.46,7.52,10.25,1.17,1.05,5.15,.23,7.04-1,5.45-3.53,8.66-2.86,10.89,3.29,1.18,3.24,1.78,6.7,3.03,9.91,1.12,2.88,2.76,4.94,6.69,3.49,4.11-1.52,5.98,1.53,7.11,4.88,.73,2.19,1.15,4.49,1.78,7.04,8.49-6.07,14.31-.58,19.7,3.22v18.59c3.76,.24,8.64,1.28,13.24,.56,2.55-.4,4.83-3.55,6.91-5.75,2.15-2.27,3.91-4.9,5.84-7.38,.74,.3,1.48,.6,2.22,.89-.52,2.68-.81,5.43-1.62,8.02-1.34,4.25,2.17,13.47,6.38,14.97,7.67,2.74,13.73,7.31,18.52,13.91,.9,1.24,3.62,1.29,5.55,1.63,3.26,.59,6.57,.95,9.85,1.45,5.34,.8,10.66,2.15,16.03,2.33,11.06,.37,12.63,1.2,16.84,11.16,.99,2.33,2.3,4.57,3.77,6.64,1.81,2.56,3.75,4.06,6.37,.39,.54-.76,3.57-.36,5.02,.36,.99,.49,1.25,2.47,1.62,3.3,2.39,0,4.29,.08,6.19-.02,2.33-.12,4.97,.23,6.91-.75,3.08-1.54,4.88-1.6,6.58,1.74,.61,1.19,2.47,2.07,3.92,2.43,7.86,1.94,15.78,3.67,24.84,5.74-3.21,5.16-4.87,10.05-8.26,12.78-6.93,5.59-8.8,13.09-10.62,20.97-1.02,4.43-2.71,8.72-3.53,13.18-1.93,10.52-3.63,21.09-5.13,31.68-.28,2,.83,4.19,1.3,6.3Z"/><path d="M557.71,553.58c-2.84-1.14-5.6-2.26-8.56-3.45,1.41-2.24,2.95-4.7,5.3-8.46h-9.93c1.41-1.96,2.06-3.43,3.18-4.31,2.91-2.28,2.83-4.26,.15-6.68-1.76-1.59-3.16-3.58-5.02-5.73,2.23-1.17,3.76-1.98,5.67-2.98-1.78-2.03-3.26-3.71-4.37-4.97,6.24-11.49,14.68-20.11,30.18-18.79,.25-1.99,.55-5.02,1.05-8.01,.47-2.81,1.15-5.57,1.74-8.36,.71-.08,1.42-.16,2.13-.24,.65,3.04,2.06,6.15,1.8,9.11-.51,5.67-1.41,10.57,1.22,16.64,2.73,6.3,1.42,14.35,1.78,21.64,.04,.84-.24,2.01-.82,2.52-5.78,5.06-5.31,11.95-6,18.67-.38,3.7-2.03,7.31-3.33,10.87-1.16,3.18-2.63,6.24-4.09,9.65-.69-.1-2.23-.08-2.3-.39-1.26-5.45-6.25-4.63-9.9-6.16-4.15-1.74-4.11-3.74,.14-10.57Z"/></g><path class="cls-1" d="M390.21,427.05c-1.09-2.07-2.53-3.08-2.97-5.18-.09-.41-.19-.82-.29-1.23-.43-2.94-.81-5.9-2.49-8.48-.08-.21-.16-.41-.24-.62,.07-.96-.77-2.21,.7-2.74,1.5-.54,2.63-2.56,4.62-1.21,0,0,0,.01,0,.01,.03,.27,.16,.44,.45,.45,0,0,0,0,0,0,0,.29,.14,.46,.45,.46h0c0,.31,.13,.48,.46,.46,0,0,0,0,0,0,.81,1.87,1,2,2.24,1.49,.25-.21,.51-.42,.76-.62,2.8-.71,3.03-1.1,2.08-3.47-.4-1.13-.61-2.38-1.24-3.35-1.11-1.69,.13-1.23,.95-1.24,.42,.12,.84,.32,1.27,.35,2.06,.17,3.24,1,2.66,3.29-.07,.29-.02,.6-.03,.91-.06,3.31,.14,3.54,3.61,4.03h-.01c.7,1.02,1.89,1.06,2.91,1.4,2.66,.88,5.51,1.25,7.79,3.08,1.34,.92,2.84,1.67,3.99,2.79,1.23,1.19,2.14,.92,3.26,.01,.8-.65,1.68-1.19,2.52-1.78,1.25-1.24,1.24-4.82,0-6.64-2.11-1.16-3.73-2.96-5.67-4.34-1.3-.93-1-2.45-1.31-3.72-.45-1.82-.79-3.66-1.18-5.49,.52-.89,1.42-.72,2.21-.75,1.95-.07,3.9-.08,5.85-.14,.66-.02,1.73,.03,1.6-.78-.33-2.11,.33-4.34-.77-6.34-.44-.82-.29-1.58,.25-2.29,1.76-.84,3.93-.71,5.39-2.27,0,0,.04-.03,.04-.03,.17-.12,.34-.25,.51-.37,.43-.44,.86-.87,1.29-1.31,1.64-1.69,3.28-3.38,4.91-5.08,.07-.02,.14-.05,.2-.1,1.23-.26,2.44-.56,3.49-1.3,0,0,.08-.03,.08-.03,3.98-.33,7.96-.68,11.94-.98,1.47-.11,1.74-.65,.75-1.76,0,0,0,0,0,0-.08-1.65-.49-3.19-1.55-4.5,.06-1.06-.29-1.75-1.45-2.02-1.43-.33-2.81-.84-4.22-1.28-.02-.23-.04-.46-.05-.69,0,0,.07-.16,.07-.16,.35-.17,.37-.49,.39-.81,0,0,.03-.08,.03-.08,.67-.42,.94-1.03,.87-1.81,0,0,0,0,0,0,1.08-.93,1.59-2.19,1.99-3.51,3.44,.28,6.94,.35,9.59,3.08,.6,.61,1.17,.37,1.84,.08,1.51-.65,3.11-1,4.77-.93,2.15,2.25,3.84,4.8,5.11,7.66,.66,1.49,1.36,3,2.32,4.29,.92,1.24,2.62,.71,3.94,1.1,.69,.21,1.54,.34,2.18,.31,2.52-.14,2.41,1.41,2.83,3.21,1.11,4.74,1.65,7.36-.56,10.91-.19,.3-3.09,4.7-4.17,2.8-.61,3.96-1.8,6.31-.98,10.71,.88,4.73,3.43,7.48,6.76,10.03,3.93,3.02,8.79,4.08,13.23,6.25,.96,.47,1.41,1.08,2.13,.75,2.06-.94,4.31-1.2,6.39-2.03,1.03-.42,1.69-.13,2.51,.96,1.09,1.46,1.35,3.14,2.06,4.68,.42,.92-.39,1.51-.84,2.14-2.33,3.24-2.29,6.32-5.1,9.18-.78,.79-2.18,.58-1.53,1.43,3.01,3.97,2.02,5.09-2.36,6.94-6.31,2.66-11.45,6.78-16.24,11.58-2.19,2.19-4.39,4.33-6.06,6.92-1.4,2.17-3.68,1.4-5.53,1.88-1.14,.29-1.69,.73-2.39,1.62-1.74,2.23,.75,4.16,.58,7.07-.21,3.62-6.21,6.1-9.6,6.85-2.84,.63-4.87,2.1-6.29,4.55-2.64,.25-5.32-.35-7.92,.46-.77,.24-1.58,.39-2.3,.74-2.41,1.16-4.66,1.2-6.62-.84-1.19-1.24-2-.68-2.96,.34-2.16,2.3-2.4,2.43-4.33,.04-2.45-3.03-6.15-3.21-9.29-4.63-2.05-.93-4.2-1.63-6.34-2.33-1.06-.35-1.33-1.05-1.41-2.03-.13-1.57-.37-3.12-.46-4.69-.08-1.29-.69-1.75-1.92-1.52-.81,.15-1.67,.16-2.42,.45-3.41,1.35-5.91-.09-8.4-2.3-2.6-2.31-6.18-2-8.49,.55-1.63,1.81-3.37,2.28-5.78,1.58-4.8-1.38-5-1.3-3.7-6.23,.71-2.69-.1-1.12-1.92-2.68-.81-.69-1.14-.72-2.51-.72-1.18,0-1.04-.25-1.68,.75-1.66,2.6-1.64,2.62-4.43,1.08-1.77-.98-3.54-1.96-5.31-2.94-.58-.32-1.32-.5-1.22-1.41,.75-.19,1.5-.39,2.25-.58,3.6,.08,4.04-.24,5.49-4.03h0c.34-.21,.46-.53,.46-.91,0,0,0,0,0,0,.41-.21,.47-.57,.38-.98,.5-.72,1-1.44,1.5-2.17,.36-.21,.44-.55,.41-.93h0c1.72,0,3.46-.11,5.17,.02,2.04,.16,2.85-.76,2.98-2.69,.17-2.52,.47-5.03,.71-7.54-.02-.41,.01-.41,.11-.68,.65-1.82,.46-3.71,1.93-5.04,0,0,0-.01,0-.01,1.33-.17,2.66-.34,3.98-.5,.47-.06,.9-.16,.95-.73,.06-.6,.01-.23-.64-1.13Z"/></g></g></svg>