<?xml version="1.0" encoding="UTF-8"?>
<svg id="Calque_2" data-name="Calque 2" xmlns="http://www.w3.org/2000/svg" viewBox="0 0 59.39 59.39">
  <defs>
    <style>
      .cls-1 {
        fill: #f05138;
      }

      .cls-1, .cls-2 {
        stroke-width: 0px;
      }

      .cls-2 {
        fill: #fff;
      }
    </style>
  </defs>
  <g id="artwork">
    <g>
      <path class="cls-1" d="M59.39,16.45c0-.6-.01-1.19-.03-1.79-.03-1.3-.11-2.61-.34-3.9-.23-1.31-.62-2.52-1.22-3.71-.59-1.17-1.37-2.23-2.29-3.16-.92-.93-1.99-1.7-3.16-2.29-1.19-.6-2.4-.99-3.71-1.22-1.29-.23-2.6-.31-3.9-.34-.6-.02-1.19-.02-1.79-.03-.71,0-1.42,0-2.13,0h-22.23c-.71,0-1.42,0-2.13,0-.6,0-1.2.01-1.79.03-.33,0-.65.02-.98.04-.98.05-1.96.13-2.92.31-.98.18-1.91.44-2.81.81-.3.12-.6.26-.9.41-.87.45-1.69.99-2.44,1.63-.25.21-.49.43-.72.67-.93.93-1.7,1.99-2.29,3.16-.6,1.19-.99,2.4-1.22,3.71-.23,1.29-.31,2.6-.34,3.9-.02.6-.02,1.19-.03,1.79C0,17.16,0,17.87,0,18.58v22.23c0,.71,0,1.42,0,2.13,0,.6.01,1.19.03,1.79.04,1.3.11,2.61.34,3.9.23,1.31.62,2.52,1.22,3.71.59,1.17,1.37,2.23,2.29,3.16.92.93,1.99,1.7,3.16,2.29,1.19.6,2.4.99,3.71,1.22,1.29.23,2.6.31,3.9.34.6.02,1.19.02,1.79.03.71,0,1.42,0,2.13,0h22.23c.71,0,1.42,0,2.13,0,.6,0,1.19-.01,1.79-.03,1.3-.03,2.61-.11,3.9-.34,1.31-.23,2.52-.62,3.71-1.22,1.17-.59,2.23-1.37,3.16-2.29.93-.92,1.7-1.99,2.29-3.16.6-1.19.99-2.4,1.22-3.71.23-1.29.31-2.6.34-3.9.02-.6.02-1.19.03-1.79,0-.71,0-1.42,0-2.13v-22.23c0-.71,0-1.42,0-2.13Z"/>
      <path class="cls-2" d="M47.06,36.66s0,0,0,0c.07-.22.13-.45.19-.67,2.47-9.82-3.55-21.43-13.73-27.55,4.46,6.05,6.43,13.37,4.68,19.78-.16.57-.34,1.12-.55,1.65-.23-.15-.51-.32-.89-.53,0,0-10.13-6.25-21.1-17.31-.29-.29,5.85,8.78,12.82,16.14-3.28-1.84-12.43-8.5-18.23-13.8.71,1.19,1.56,2.33,2.49,3.43,4.84,6.13,11.15,13.7,18.7,19.52-5.31,3.25-12.81,3.5-20.29,0-1.85-.87-3.59-1.91-5.19-3.1,3.16,5.06,8.03,9.42,13.96,11.97,7.07,3.04,14.1,2.83,19.34.05h0s.05-.03.08-.04c.22-.12.43-.23.64-.36,2.52-1.31,7.48-2.63,10.15,2.56.65,1.27,2.04-5.46-3.06-11.74Z"/>
    </g>
  </g>
</svg>